<svg width="432" height="80" viewBox="0 0 432 80" fill="none" xmlns="http://www.w3.org/2000/svg">
    <path d="M105.568 64V19.2H136.8V28.544H116.256V54.656H137.504V64H105.568ZM110.752 45.696V36.736H133.984V45.696H110.752ZM145.794 64V30.016H155.586L155.97 36.928L153.858 37.696C154.327 36.16 155.159 34.7733 156.354 33.536C157.591 32.256 159.063 31.232 160.77 30.464C162.477 29.696 164.269 29.312 166.146 29.312C168.706 29.312 170.861 29.8453 172.61 30.912C174.359 31.936 175.661 33.4933 176.514 35.584C177.41 37.632 177.858 40.1707 177.858 43.2V64H167.554V43.968C167.554 42.6027 167.362 41.472 166.978 40.576C166.594 39.68 166.018 39.0187 165.25 38.592C164.482 38.1653 163.522 37.9733 162.37 38.016C161.474 38.016 160.642 38.1653 159.874 38.464C159.106 38.72 158.423 39.1253 157.826 39.68C157.271 40.192 156.845 40.7893 156.546 41.472C156.247 42.1547 156.098 42.9227 156.098 43.776V64H150.914C149.805 64 148.802 64 147.906 64C147.053 64 146.349 64 145.794 64ZM202.674 64.64C198.919 64.64 195.634 63.8933 192.818 62.4C190.044 60.9067 187.89 58.8587 186.354 56.256C184.86 53.6107 184.114 50.6027 184.114 47.232C184.114 44.5867 184.54 42.176 185.394 40C186.247 37.7813 187.442 35.8827 188.978 34.304C190.556 32.7253 192.391 31.5093 194.482 30.656C196.615 29.76 198.94 29.312 201.458 29.312C203.847 29.312 206.023 29.7387 207.986 30.592C209.948 31.4453 211.655 32.64 213.106 34.176C214.556 35.712 215.666 37.5253 216.434 39.616C217.202 41.7067 217.564 43.9893 217.522 46.464L217.458 49.28H190.45L188.914 43.456H209.074L207.986 44.608V43.328C207.9 42.2613 207.559 41.344 206.962 40.576C206.407 39.7653 205.66 39.1253 204.722 38.656C203.826 38.1867 202.802 37.952 201.65 37.952C199.943 37.952 198.492 38.2933 197.298 38.976C196.146 39.616 195.271 40.5547 194.674 41.792C194.076 43.0293 193.778 44.5653 193.778 46.4C193.778 48.2347 194.162 49.856 194.93 51.264C195.74 52.672 196.892 53.76 198.385 54.528C199.922 55.296 201.735 55.68 203.826 55.68C205.234 55.68 206.514 55.4667 207.666 55.04C208.818 54.6133 210.055 53.888 211.378 52.864L216.178 59.648C214.855 60.7573 213.447 61.696 211.954 62.464C210.46 63.1893 208.924 63.7227 207.346 64.064C205.81 64.448 204.252 64.64 202.674 64.64ZM224.044 64V30.016H233.836L234.284 41.088L232.364 38.912C232.919 37.12 233.772 35.4987 234.924 34.048C236.076 32.5973 237.441 31.4453 239.02 30.592C240.641 29.7387 242.327 29.312 244.076 29.312C244.844 29.312 245.548 29.376 246.188 29.504C246.871 29.5893 247.468 29.7387 247.98 29.952L245.228 41.28C244.759 41.024 244.119 40.8107 243.308 40.64C242.54 40.4267 241.729 40.32 240.876 40.32C239.937 40.32 239.063 40.4907 238.252 40.832C237.484 41.1307 236.801 41.5787 236.204 42.176C235.649 42.7733 235.201 43.4773 234.86 44.288C234.561 45.0987 234.412 46.016 234.412 47.04V64H224.044ZM267.846 78.72C265.115 78.72 262.363 78.3147 259.59 77.504C256.859 76.736 254.641 75.712 252.934 74.432L256.518 67.136C257.883 68.0747 259.419 68.8 261.126 69.312C262.875 69.8667 264.689 70.144 266.566 70.144C268.742 70.144 270.513 69.824 271.878 69.184C273.243 68.544 274.246 67.584 274.886 66.304C275.569 65.024 275.91 63.424 275.91 61.504V55.872L277.83 56.256C277.574 57.5787 276.849 58.816 275.654 59.968C274.502 61.12 273.073 62.0373 271.366 62.72C269.659 63.4027 267.867 63.744 265.99 63.744C262.918 63.744 260.166 63.04 257.734 61.632C255.302 60.1813 253.382 58.1973 251.974 55.68C250.609 53.12 249.926 50.176 249.926 46.848C249.926 43.4347 250.609 40.4053 251.974 37.76C253.382 35.1147 255.281 33.0453 257.67 31.552C260.059 30.0587 262.747 29.312 265.734 29.312C266.971 29.312 268.166 29.4613 269.318 29.76C270.513 30.016 271.601 30.4 272.582 30.912C273.606 31.424 274.502 32 275.27 32.64C276.081 33.28 276.742 33.984 277.254 34.752C277.766 35.52 278.086 36.288 278.214 37.056L276.102 37.696L276.486 30.016H286.278V61.184C286.278 63.9573 285.851 66.432 284.998 68.608C284.187 70.784 282.971 72.6187 281.35 74.112C279.771 75.6053 277.851 76.736 275.59 77.504C273.329 78.3147 270.747 78.72 267.846 78.72ZM268.102 55.744C269.766 55.744 271.195 55.3813 272.39 54.656C273.627 53.9307 274.566 52.9067 275.206 51.584C275.889 50.2613 276.23 48.7253 276.23 46.976C276.23 45.1413 275.889 43.5627 275.206 42.24C274.566 40.9173 273.627 39.8933 272.39 39.168C271.195 38.4 269.766 38.016 268.102 38.016C266.523 38.016 265.137 38.4 263.942 39.168C262.747 39.8933 261.809 40.9173 261.126 42.24C260.486 43.5627 260.166 45.12 260.166 46.912C260.166 48.704 260.486 50.2613 261.126 51.584C261.809 52.9067 262.747 53.9307 263.942 54.656C265.137 55.3813 266.523 55.744 268.102 55.744ZM295.745 64V30.016H306.049V64H295.745ZM300.929 23.296C298.966 23.296 297.43 22.848 296.321 21.952C295.254 21.0133 294.721 19.6907 294.721 17.984C294.721 16.4053 295.276 15.1253 296.385 14.144C297.494 13.1627 299.009 12.672 300.929 12.672C302.806 12.672 304.278 13.1413 305.345 14.08C306.454 14.976 307.009 16.2773 307.009 17.984C307.009 19.5627 306.454 20.8427 305.345 21.824C304.278 22.8053 302.806 23.296 300.929 23.296ZM338.452 78.08V55.872L340.628 56.384C340.5 57.4507 340.073 58.4747 339.348 59.456C338.665 60.4373 337.769 61.3333 336.66 62.144C335.55 62.912 334.313 63.5307 332.948 64C331.582 64.4267 330.174 64.64 328.724 64.64C325.78 64.64 323.134 63.8933 320.788 62.4C318.484 60.864 316.67 58.7733 315.348 56.128C314.025 53.44 313.364 50.4107 313.364 47.04C313.364 43.584 314.025 40.5333 315.348 37.888C316.67 35.2 318.462 33.1093 320.724 31.616C323.028 30.08 325.609 29.312 328.468 29.312C330.089 29.312 331.625 29.5467 333.076 30.016C334.526 30.4427 335.828 31.0613 336.98 31.872C338.132 32.64 339.049 33.5147 339.732 34.496C340.457 35.4773 340.862 36.5227 340.948 37.632L338.58 38.016L338.964 30.016H348.756V78.08H338.452ZM331.092 55.872C332.628 55.872 333.972 55.5093 335.124 54.784C336.276 54.0587 337.15 53.0347 337.748 51.712C338.388 50.3893 338.708 48.832 338.708 47.04C338.708 45.2053 338.388 43.6267 337.748 42.304C337.15 40.9387 336.276 39.8933 335.124 39.168C333.972 38.4 332.628 38.016 331.092 38.016C329.556 38.016 328.212 38.4 327.06 39.168C325.908 39.8933 325.012 40.9387 324.372 42.304C323.732 43.6267 323.412 45.2053 323.412 47.04C323.412 48.7893 323.732 50.3467 324.372 51.712C325.012 53.0347 325.908 54.0587 327.06 54.784C328.212 55.5093 329.556 55.872 331.092 55.872ZM369.441 64.64C366.966 64.64 364.833 64.1067 363.041 63.04C361.249 61.9307 359.862 60.3733 358.881 58.368C357.942 56.32 357.473 53.8667 357.473 51.008V30.016H367.777V49.472C367.777 51.5627 368.267 53.2053 369.249 54.4C370.273 55.552 371.681 56.128 373.473 56.128C374.369 56.128 375.179 56 375.905 55.744C376.63 55.4453 377.249 55.04 377.761 54.528C378.315 53.9733 378.742 53.3333 379.041 52.608C379.339 51.8827 379.489 51.0933 379.489 50.24V30.016H389.793V64H380.129L379.745 57.024L381.601 56.256C381.131 57.8347 380.278 59.264 379.041 60.544C377.846 61.824 376.417 62.8267 374.753 63.552C373.089 64.2773 371.318 64.64 369.441 64.64ZM415.174 64.64C411.419 64.64 408.134 63.8933 405.318 62.4C402.544 60.9067 400.39 58.8587 398.854 56.256C397.36 53.6107 396.614 50.6027 396.614 47.232C396.614 44.5867 397.04 42.176 397.894 40C398.747 37.7813 399.942 35.8827 401.478 34.304C403.056 32.7253 404.891 31.5093 406.982 30.656C409.115 29.76 411.44 29.312 413.958 29.312C416.347 29.312 418.523 29.7387 420.486 30.592C422.448 31.4453 424.155 32.64 425.606 34.176C427.056 35.712 428.166 37.5253 428.934 39.616C429.702 41.7067 430.064 43.9893 430.022 46.464L429.958 49.28H402.95L401.414 43.456H421.574L420.486 44.608V43.328C420.4 42.2613 420.059 41.344 419.462 40.576C418.907 39.7653 418.16 39.1253 417.222 38.656C416.326 38.1867 415.302 37.952 414.15 37.952C412.443 37.952 410.992 38.2933 409.798 38.976C408.646 39.616 407.771 40.5547 407.174 41.792C406.576 43.0293 406.278 44.5653 406.278 46.4C406.278 48.2347 406.662 49.856 407.43 51.264C408.24 52.672 409.392 53.76 410.885 54.528C412.422 55.296 414.235 55.68 416.326 55.68C417.734 55.68 419.014 55.4667 420.166 55.04C421.318 54.6133 422.555 53.888 423.878 52.864L428.678 59.648C427.355 60.7573 425.947 61.696 424.454 62.464C422.96 63.1893 421.424 63.7227 419.846 64.064C418.31 64.448 416.752 64.64 415.174 64.64Z" fill="#185B03"/>
    <path d="M44.0493 64.2232C44.1211 56.8803 42.2595 50.9091 39.8915 50.8859C37.5234 50.8629 35.5454 56.7966 35.4738 64.1394C35.4019 71.4822 37.2635 77.4536 39.6315 77.4766C41.9997 77.4998 43.9776 71.5661 44.0493 64.2232Z" fill="#FFDA10"/>
    <path d="M30.3152 62.5555C34.3458 56.4173 36.0083 50.3875 34.0288 49.0877C32.0491 47.7878 27.177 51.7101 23.1466 57.8483C19.116 63.9866 17.4534 70.0162 19.433 71.3162C21.4126 72.616 26.2846 68.6938 30.3152 62.5555Z" fill="#FFDA10"/>
    <path d="M19.6467 53.7488C26.3562 50.7645 31.0149 46.591 30.0523 44.4272C29.0899 42.2634 22.8707 42.9286 16.1613 45.9131C9.45192 48.8974 4.79316 53.0709 5.75563 55.2347C6.7181 57.3986 12.9374 56.7333 19.6467 53.7488Z" fill="#FFDA10"/>
    <path d="M29.247 38.3592C29.6073 36.0186 24.0158 33.2155 16.7582 32.0984C9.50044 30.9813 3.32485 31.9733 2.9646 34.3139C2.60434 36.6546 8.19583 39.4574 15.4536 40.5746C22.7112 41.6917 28.8869 40.6997 29.247 38.3592Z" fill="#FFDA10"/>
    <path d="M31.8528 32.7832C33.4211 31.0088 30.232 25.6282 24.7297 20.7653C19.2275 15.9024 13.4957 13.3988 11.9274 15.1733C10.3591 16.9478 13.5482 22.3285 19.0505 27.1914C24.5528 32.0542 30.2846 34.5578 31.8528 32.7832Z" fill="#FFDA10"/>
    <path d="M37.0422 29.5245C39.321 28.8797 39.5474 22.629 37.548 15.5633C35.5486 8.49751 32.0805 3.29233 29.8018 3.93714C27.523 4.58196 27.2966 10.8326 29.296 17.8984C31.2954 24.964 34.7635 30.1693 37.0422 29.5245Z" fill="#FFDA10"/>
    <path d="M51.1334 18.1182C53.2718 11.0933 53.1688 4.8394 50.9032 4.14978C48.6376 3.46015 45.0675 8.59592 42.9291 15.6209C40.7909 22.6458 40.8939 28.8997 43.1595 29.5893C45.4251 30.2789 48.9952 25.1432 51.1334 18.1182Z" fill="#FFDA10"/>
    <path d="M61.2023 27.6104C66.7986 22.856 70.0923 17.5387 68.5589 15.734C67.0256 13.9292 61.2459 16.3203 55.6498 21.0745C50.0535 25.8289 46.7599 31.1462 48.2931 32.951C49.8264 34.7558 55.6061 32.3648 61.2023 27.6104Z" fill="#FFDA10"/>
    <path d="M64.5315 41.043C71.8099 40.0693 77.4555 37.3771 77.1415 35.0298C76.8275 32.6826 70.6727 31.5691 63.3943 32.5427C56.116 33.5165 50.4703 36.2086 50.7843 38.556C51.0984 40.9032 57.2531 42.0168 64.5315 41.043Z" fill="#FFDA10"/>
    <path d="M73.9207 55.9056C74.9256 53.7613 70.3501 49.4968 63.7008 46.3806C57.0517 43.2645 50.8467 42.4768 49.8418 44.6211C48.8368 46.7656 53.4123 51.0301 60.0616 54.1462C66.7107 57.2622 72.9157 58.0501 73.9207 55.9056Z" fill="#FFDA10"/>
    <path d="M59.9343 71.7278C61.9391 70.4674 60.3957 64.4059 56.4871 58.1894C52.5784 51.973 47.7845 47.9555 45.7797 49.216C43.7749 50.4765 45.3183 56.5379 49.2269 62.7544C53.1355 68.9709 57.9295 72.9885 59.9343 71.7278Z" fill="#FFDA10"/>
</svg>
